<svg xmlns="http://www.w3.org/2000/svg" viewBox="0 0 709.61 709.61"><defs><style>.cls-1{fill:#5959B0;}</style></defs><g id="Ebene_3" data-name="Ebene 3"><path class="cls-1" d="M425.2,690c-146,0-264.81-118.79-264.81-264.8S279.18,160.39,425.2,160.39a265.71,265.71,0,0,1,65,8l22-87.27a354.81,354.81,0,1,0,0,688.09l-22-87.26A266.18,266.18,0,0,1,425.2,690Z" transform="translate(-70.39 -70.39)"/><path class="cls-1" d="M723.05,232.34A355.41,355.41,0,0,0,579,105.41l-2.36-1.64-.26.39-.81-.39L573,109.36,265.53,575.2l77.33,52L437,482.29H683.86c-16.79,77-67.18,143-139.74,179.58l40.48,80.38A355,355,0,0,0,723.05,232.34Zm-35.13,160H495.44L602,228.19A266.58,266.58,0,0,1,687.92,392.29Z" transform="translate(-70.39 -70.39)"/></g></svg>